<?xml version="1.0" encoding="utf-8"?>
<!-- Generator: Adobe Illustrator 16.0.4, SVG Export Plug-In . SVG Version: 6.00 Build 0)  -->
<!DOCTYPE svg PUBLIC "-//W3C//DTD SVG 1.1//EN" "http://www.w3.org/Graphics/SVG/1.1/DTD/svg11.dtd">
<svg version="1.1" id="Ebene_1" xmlns="http://www.w3.org/2000/svg" xmlns:xlink="http://www.w3.org/1999/xlink" x="0px" y="0px"
	 width="198.425px" height="232.441px" viewBox="0 0 198.425 232.441" enable-background="new 0 0 198.425 232.441"
	 xml:space="preserve">
<g>
	<path fill="#181716" d="M127.929,118.021c-1.25-7.795-4.913-11.384-6.236-12.453v6.255c0.901,1.581,1.8,3.798,2.287,6.831
		c1.284,8.01-0.037,22.112-3.408,27.152l-0.064,0.104c-4.953,8.48-11.799,12.604-20.926,12.604
		c-11.594,0-17.127-6.444-21.054-12.812c-3.171-4.734-4.904-18.552-3.387-26.81c0.567-2.55,1.335-4.551,2.104-6.099v-6.931
		c-1.363,1.346-4.42,5.024-6.023,12.231c-1.74,9.459,0.233,24.237,3.942,29.77c4.203,6.821,10.777,14.65,24.417,14.65
		c10.654,0,18.618-4.756,24.35-14.535C127.922,141.936,129.358,126.941,127.929,118.021"/>
	<path fill="#26CFFF" d="M100.254,146.295c-0.257,0.016-0.516,0.024-0.775,0.024c-7.716,0-13.995-6.583-13.995-14.675
		c0-5.439,2.839-10.195,7.043-12.729v-4.554c-6.42,2.85-10.936,9.524-10.936,17.283c0,10.342,8.024,18.757,17.887,18.757
		c0.26,0,0.519-0.006,0.775-0.018V146.295z"/>
	<path fill="#26CFFF" d="M113.159,135.115c-0.837,4.098-3.311,7.564-6.664,9.612v4.556c5.126-2.302,9.028-7.047,10.364-12.833
		L113.159,135.115z"/>
	<path fill="#26CFFF" d="M113.396,130.122l3.796-1.033c-1.191-9.137-8.679-16.201-17.715-16.201c-0.238,0-0.474,0.009-0.709,0.019
		v4.082c0.235-0.013,0.471-0.019,0.709-0.019C106.703,116.97,112.668,122.743,113.396,130.122"/>
	<path fill="#FF401A" d="M97.535,155.587v-4.172c-0.478-0.056-1.231-0.163-1.946-0.347c-0.805-0.209-1.504-0.479-1.946-0.667v4.408
		C94.875,155.202,96.173,155.462,97.535,155.587"/>
	<path fill="#FF401A" d="M119.566,103.943l-0.027,5.102c-3.913-4.195-9.838-3.288-14.203-3.118l-0.016,6.737
		c-0.411-0.156-1.102-0.393-1.947-0.571c-0.725-0.156-1.457-0.227-1.946-0.256v-5.956h-0.003v-4.092
		C108.568,101.789,114.946,100.825,119.566,103.943"/>
	<path fill="#FF401A" d="M97.535,103.9v41.04c-0.442-0.045-1.143-0.146-1.946-0.365c-0.831-0.229-1.514-0.623-1.946-0.916v-37.731
		c-4.323-0.255-10.474-0.964-14.25,3.515v-5.357c5.93-3.572,11.033-2.285,18.139-2.285v2.1H97.535z"/>
	<path fill="#FF401A" d="M105.319,154.797v-35.212c-0.411-0.237-1.106-0.599-2.026-0.898c-0.747-0.245-1.416-0.35-1.865-0.39v37.27
		C102.789,155.437,104.087,155.179,105.319,154.797"/>
	<path fill="#181716" d="M113.84,99.748H85.323c0,0,8.476-5.443,8.476-12.076c0.113-4.478,0.595-7.937,0.567-17.461
		c0-4.876-1.304-10.573-1.304-10.573s1.843-1.843,6.52-1.843c4.479,0,6.52,1.843,6.52,1.843s-1.36,5.726-1.331,10.551
		c-0.059,9.518,0.254,13.061,0.254,17.483C105.024,94.391,113.84,99.748,113.84,99.748"/>
</g>
<polygon fill="#181716" points="57.971,129.672 65.903,129.017 66.047,130.753 60.108,133.727 66.452,135.653 66.595,137.379 
	58.662,138.034 58.565,136.865 65.257,136.345 58.351,134.272 58.283,133.445 64.755,130.267 58.068,130.852 "/>
<g>
	<path fill="#181716" d="M69.124,143.679l-0.339-1.032l1.38-0.452l0.339,1.032L69.124,143.679z M68.444,141.604l-0.339-1.032
		l1.38-0.452l0.339,1.032L68.444,141.604z M67.532,140.896l-4.723,1.547c-0.47,0.154-0.879,0.289-1.228,0.709
		c-0.284,0.342-0.392,0.841-0.221,1.362s0.543,0.864,0.958,0.953c0.523,0.146,0.941,0.009,1.433-0.151l4.722-1.548l0.392,1.195
		l-4.722,1.547c-0.999,0.34-1.819,0.428-2.589-0.056c-0.556-0.316-1.009-0.836-1.254-1.582c-0.177-0.541-0.279-1.369,0.054-2.044
		c0.42-0.964,1.136-1.301,2.06-1.592l4.722-1.548L67.532,140.896z"/>
</g>
<polygon fill="#181716" points="67.312,154.945 72.539,151.883 73.154,152.945 66.271,156.944 65.688,155.939 68.843,149.292 
	63.607,152.358 62.991,151.297 69.875,147.298 70.475,148.332 "/>
<g>
	<path fill="#181716" d="M75.944,163.935c-1.378,0.677-3.21,0.426-4.488-0.853c-1.696-1.697-1.612-4.275-0.014-5.873
		c1.544-1.544,4.108-1.718,5.85,0.024c1.505,1.521,1.337,3.484,0.835,4.534l-0.951-0.951c0.183-0.548,0.297-1.803-0.683-2.799
		c-1.195-1.195-3.012-1.051-4.153,0.09c-1.173,1.172-1.288,2.989-0.101,4.176c1.088,1.089,2.434,0.792,2.762,0.708L75.944,163.935z"
		/>
</g>
<polygon fill="#181716" points="77.315,167.859 81.242,160.933 82.346,161.559 80.69,164.479 83.676,166.171 85.332,163.251 
	86.435,163.878 82.508,170.802 81.405,170.176 83.124,167.145 80.138,165.453 78.419,168.485 "/>
<polygon fill="#181716" points="88.669,164.757 92.945,166.001 92.633,167.075 89.575,166.187 88.944,168.356 91.961,169.233 
	91.651,170.297 88.635,169.42 87.978,171.682 91.034,172.57 90.722,173.645 86.445,172.402 "/>
<polygon fill="#181716" points="100.038,172.694 100.264,166.642 101.489,166.692 101.164,174.646 100.003,174.597 96.091,168.366 
	95.865,174.428 94.64,174.378 94.964,166.424 96.158,166.473 "/>
<g>
	<path fill="#181716" d="M106.376,172.774l1.247-0.291c0.251-0.06,0.561-0.152,0.798-0.318c0.338-0.256,0.554-0.65,0.429-1.239
		c-0.125-0.532-0.495-0.835-0.931-0.908c-0.334-0.054-0.588-0.007-0.965,0.083l-1.143,0.266L106.376,172.774z M105.568,169.329
		l1.018-0.238c0.282-0.065,0.561-0.152,0.757-0.309c0.338-0.299,0.396-0.668,0.3-1.074c-0.109-0.473-0.435-0.729-0.736-0.791
		c-0.212-0.049-0.463-0.035-0.849,0.056l-0.985,0.231L105.568,169.329z M103.582,166.403l2.313-0.542
		c0.734-0.171,1.303-0.149,1.744,0.034c0.646,0.215,1.007,0.77,1.152,1.387c0.19,0.818-0.118,1.432-0.605,1.854
		c1.442,0.116,1.782,1.241,1.863,1.586c0.169,0.769-0.014,1.494-0.529,1.991c-0.456,0.503-0.899,0.686-1.853,0.908l-2.273,0.532
		L103.582,166.403z"/>
	<path fill="#181716" d="M111.704,163.992l2.229,4.441c0.222,0.443,0.414,0.828,0.882,1.111c0.381,0.23,0.892,0.263,1.382,0.017
		c0.489-0.246,0.772-0.665,0.802-1.088c0.065-0.54-0.132-0.934-0.363-1.395l-2.229-4.442l1.124-0.564l2.229,4.441
		c0.482,0.938,0.69,1.737,0.326,2.569c-0.231,0.598-0.677,1.122-1.379,1.474c-0.51,0.255-1.313,0.479-2.029,0.249
		c-1.016-0.273-1.456-0.932-1.879-1.801l-2.229-4.444L111.704,163.992z"/>
	<path fill="#181716" d="M126.75,160.116c0.576,1.423,0.193,3.231-1.173,4.416c-1.813,1.569-4.38,1.301-5.858-0.408
		c-1.429-1.651-1.419-4.22,0.443-5.832c1.626-1.393,3.57-1.085,4.582-0.509l-1.018,0.88c-0.532-0.222-1.775-0.425-2.84,0.481
		c-1.278,1.106-1.264,2.93-0.207,4.149c1.084,1.254,2.888,1.498,4.158,0.399c1.162-1.008,0.963-2.371,0.902-2.704L126.75,160.116z"
		/>
</g>
<polygon fill="#181716" points="130.731,159.004 124.145,154.533 124.857,153.483 127.634,155.368 129.562,152.528 126.784,150.644 
	127.497,149.594 134.085,154.064 133.372,155.113 130.487,153.156 128.561,155.997 131.444,157.953 "/>
<g>
	<path fill="#181716" d="M134.201,148.591c1.139,0.37,1.675-0.317,1.833-0.706c0.268-0.657-0.02-1.438-0.678-1.704
		c-0.817-0.333-1.291,0.288-2.024,1.093c-0.424,0.501-1.376,1.611-2.762,1.047c-1.379-0.549-1.646-2.029-1.177-3.186
		c0.385-0.946,1.387-1.92,2.938-1.395l-0.472,1.156c-0.431-0.082-1.141-0.162-1.485,0.683c-0.243,0.6-0.047,1.283,0.582,1.539
		c0.717,0.291,1.119-0.183,2.041-1.19c0.761-0.758,1.578-1.424,2.772-0.938c1.197,0.488,1.904,1.716,1.264,3.29
		c-0.598,1.465-1.874,2.037-3.309,1.478L134.201,148.591z"/>
</g>
<polygon fill="#181716" points="131.172,140.578 132.056,136.212 133.151,136.434 132.521,139.555 134.734,140.004 135.357,136.925 
	136.443,137.144 135.819,140.223 138.129,140.692 138.762,137.571 139.857,137.793 138.974,142.158 "/>
<polygon fill="#181716" points="132.342,133.563 132.498,129.112 133.616,129.152 133.504,132.333 135.763,132.414 135.873,129.274 
	136.981,129.314 136.869,132.453 139.225,132.536 139.336,129.354 140.454,129.394 140.297,133.843 "/>
</svg>
