<?xml version="1.0" encoding="iso-8859-1"?>
<!-- Generator: Adobe Illustrator 19.1.0, SVG Export Plug-In . SVG Version: 6.00 Build 0)  -->
<svg version="1.1" id="Capa_1" xmlns="http://www.w3.org/2000/svg" xmlns:xlink="http://www.w3.org/1999/xlink" x="0px" y="0px"
	 viewBox="0 0 441.867 441.867" style="enable-background:new 0 0 441.867 441.867;" xml:space="preserve">
<g>
	<circle style="fill:#518066;" cx="234.115" cy="220.933" r="207.751"/>
	<ellipse style="fill:#367862;" cx="321.1" cy="312.429" rx="34.529" ry="15.346"/>
	<circle style="fill:#F9D363;" cx="297.974" cy="266.176" r="23.124"/>
	<path style="fill:#FFFFFF;" d="M130.359,40.911c-13.586,7.847-26.192,17.195-37.611,27.805l333.896,74.054
		c-5.936-14.608-13.483-28.39-22.426-41.119L130.359,40.911z"/>
	<g>
		
			<ellipse transform="matrix(0.4866 0.8737 -0.8737 0.4866 249.4672 -53.0023)" style="fill:#921D0F;" cx="169.826" cy="185.737" rx="93.259" ry="108.379"/>
		<path style="fill:#EA7053;" d="M152.207,282.688L78.128,149.669c-12.449,21.987-16.594,46.909-10.603,69.835l-57.109,31.805
			c-9.784,5.448-13.299,17.795-7.85,27.58c5.449,9.782,17.797,13.295,27.58,7.848l57.11-31.805
			C103.59,272.095,126.962,281.694,152.207,282.688z"/>
	</g>
	<g style="opacity:0.3;">
		<path style="fill:#EA7053;" d="M14.29,286.669c-5.449-9.784-1.934-22.133,7.85-27.58l57.11-31.805
			c-0.104-0.401-0.183-0.808-0.282-1.21c-0.219-0.894-0.435-1.786-0.624-2.683c-0.111-0.528-0.204-1.058-0.305-1.589
			c-0.183-0.968-0.365-1.939-0.514-2.913c-0.067-0.434-0.116-0.871-0.176-1.307c-0.147-1.076-0.289-2.151-0.395-3.231
			c-0.027-0.277-0.041-0.557-0.066-0.836c-3.361-38.159,18.966-79.018,59.287-101.471c36.138-20.127,77.242-20.189,107.466-3.46
			c-30.635-24.153-78.12-27.195-119.19-4.322c-40.321,22.455-62.648,63.314-59.287,101.473c0.024,0.277,0.038,0.556,0.066,0.836
			c0.106,1.079,0.248,2.156,0.395,3.231c0.06,0.435,0.11,0.871,0.176,1.306c0.149,0.974,0.331,1.945,0.515,2.915
			c0.1,0.528,0.194,1.058,0.304,1.586c0.189,0.897,0.405,1.791,0.624,2.683c0.1,0.402,0.177,0.809,0.282,1.212l-57.109,31.805
			c-9.784,5.448-13.299,17.795-7.85,27.58c2.885,5.18,7.71,8.58,13.06,9.844C15.149,288.078,14.694,287.396,14.29,286.669z"/>
		<path style="fill:#EA7053;" d="M106.282,269.48c-0.363-0.298-0.731-0.588-1.088-0.894c-0.729-0.624-1.438-1.27-2.146-1.918
			c-0.419-0.382-0.841-0.761-1.251-1.152c-0.648-0.618-1.278-1.257-1.906-1.896c-0.3-0.307-0.615-0.596-0.911-0.907l-1.86,1.036
			c0.226,0.168,0.456,0.332,0.681,0.5c0.964,0.719,1.936,1.431,2.932,2.111c0.037,0.026,0.078,0.049,0.115,0.075
			c2.228,1.517,4.539,2.917,6.908,4.228C107.265,270.271,106.768,269.881,106.282,269.48z"/>
	</g>
</g>
<g>
</g>
<g>
</g>
<g>
</g>
<g>
</g>
<g>
</g>
<g>
</g>
<g>
</g>
<g>
</g>
<g>
</g>
<g>
</g>
<g>
</g>
<g>
</g>
<g>
</g>
<g>
</g>
<g>
</g>
</svg>
