<?xml version="1.0" encoding="UTF-8" standalone="no"?>
<svg
   xmlns:dc="http://purl.org/dc/elements/1.1/"
   xmlns:cc="http://creativecommons.org/ns#"
   xmlns:rdf="http://www.w3.org/1999/02/22-rdf-syntax-ns#"
   xmlns:svg="http://www.w3.org/2000/svg"
   xmlns="http://www.w3.org/2000/svg"
   xmlns:sodipodi="http://sodipodi.sourceforge.net/DTD/sodipodi-0.dtd"
   xmlns:inkscape="http://www.inkscape.org/namespaces/inkscape"
   version="1.1"
   id="svg10"
   xml:space="preserve"
   width="221.89587"
   height="221.89439"
   viewBox="0 0 221.89587 221.89439"
   sodipodi:docname="TTCThun.svg"
   inkscape:version="1.0.1 (3bc2e813f5, 2020-09-07)"><metadata
     id="metadata16"><rdf:RDF><cc:Work
         rdf:about=""><dc:format>image/svg+xml</dc:format><dc:type
           rdf:resource="http://purl.org/dc/dcmitype/StillImage" /><dc:title></dc:title></cc:Work></rdf:RDF></metadata><defs
     id="defs14"><clipPath
       clipPathUnits="userSpaceOnUse"
       id="clipPath30"><path
         d="m 3.7947,82.2098 c 0,-43.3074 35.108,-78.4156 78.416,-78.4156 43.3077,0 78.4156,35.1082 78.4156,78.4156 v 0 c 0,43.3086 -35.1079,78.4168 -78.4156,78.4168 v 0 c -43.308,0 -78.416,-35.1082 -78.416,-78.4168"
         clip-rule="evenodd"
         id="path28" /></clipPath><radialGradient
       fx="0"
       fy="0"
       cx="0"
       cy="0"
       r="0.50999999"
       gradientUnits="userSpaceOnUse"
       gradientTransform="matrix(156.83244,0,0,156.83244,82.2104,82.2104)"
       spreadMethod="pad"
       id="radialGradient38"><stop
         style="stop-opacity:1;stop-color:#e31e24"
         offset="0"
         id="stop34" /><stop
         style="stop-opacity:1;stop-color:#e31e24"
         offset="1"
         id="stop36" /></radialGradient><clipPath
       clipPathUnits="userSpaceOnUse"
       id="clipPath92"><path
         d="m 68.1735,126.6347 59.6506,-53.8991 c 0.6324,3.0586 0.9658,6.2277 0.9658,9.4742 v 0 c 0,25.7256 -20.8548,46.5795 -46.5792,46.5795 -4.8923,0 -9.6072,-0.7557 -14.0372,-2.1546"
         clip-rule="evenodd"
         id="path90" /></clipPath><radialGradient
       fx="0"
       fy="0"
       cx="0"
       cy="0"
       r="0.49000001"
       gradientUnits="userSpaceOnUse"
       gradientTransform="matrix(60.61635,0,0,60.61635,98.4815,100.7623)"
       spreadMethod="pad"
       id="radialGradient102"><stop
         style="stop-opacity:1;stop-color:#d92308"
         offset="0"
         id="stop96" /><stop
         style="stop-opacity:1;stop-color:#de2016"
         offset="0.47"
         id="stop98" /><stop
         style="stop-opacity:1;stop-color:#e31e24"
         offset="1"
         id="stop100" /></radialGradient><clipPath
       clipPathUnits="userSpaceOnUse"
       id="clipPath112"><path
         d="m 35.6312,82.2098 c 0,-25.7244 20.8548,-46.578 46.5795,-46.578 4.589,0 9.0218,0.6664 13.2111,1.904 v 0 L 36.4323,90.8371 c -0.5239,-2.7958 -0.8011,-5.679 -0.8011,-8.6273"
         clip-rule="evenodd"
         id="path110" /></clipPath><radialGradient
       fx="0"
       fy="0"
       cx="0"
       cy="0"
       r="0.49000001"
       gradientUnits="userSpaceOnUse"
       gradientTransform="matrix(59.79061,0,0,59.79061,65.5265,63.2344)"
       spreadMethod="pad"
       id="radialGradient122"><stop
         style="stop-opacity:1;stop-color:#d92308"
         offset="0"
         id="stop116" /><stop
         style="stop-opacity:1;stop-color:#de2016"
         offset="0.47"
         id="stop118" /><stop
         style="stop-opacity:1;stop-color:#e31e24"
         offset="1"
         id="stop120" /></radialGradient></defs><sodipodi:namedview
     pagecolor="#ffffff"
     bordercolor="#666666"
     borderopacity="1"
     objecttolerance="10"
     gridtolerance="10"
     guidetolerance="10"
     inkscape:pageopacity="0"
     inkscape:pageshadow="2"
     inkscape:window-width="1677"
     inkscape:window-height="1037"
     id="namedview12"
     showgrid="false"
     inkscape:zoom="3.8306511"
     inkscape:cx="110.94794"
     inkscape:cy="110.9472"
     inkscape:window-x="0"
     inkscape:window-y="0"
     inkscape:window-maximized="0"
     inkscape:current-layer="g18" /><g
     id="g18"
     inkscape:groupmode="layer"
     inkscape:label="TTCThun"
     transform="matrix(1.3333333,0,0,-1.3333333,1.3333333,220.56107)"><path
       d="M 164.4219,82.2104 C 164.4219,36.8073 127.6143,0 82.2112,0 36.807,0 0,36.8073 0,82.2104 c 0,45.4039 36.807,82.2104 82.2112,82.2104 45.4031,0 82.2107,-36.8065 82.2107,-82.2104"
       style="fill:#1c1c1c;fill-opacity:1;fill-rule:nonzero;stroke:none"
       id="path20" /><path
       d="m 162.9054,82.2104 c 0,-44.5666 -36.1281,-80.6947 -80.6947,-80.6947 -44.5666,0 -80.6947,36.1281 -80.6947,80.6947 0,44.5666 36.1281,80.695 80.6947,80.695 44.5666,0 80.6947,-36.1284 80.6947,-80.695"
       style="fill:#ffffff;fill-opacity:1;fill-rule:nonzero;stroke:none"
       id="path22" /><g
       id="g24"><g
         id="g26"
         clip-path="url(#clipPath30)"><g
           id="g32"><path
             d="m 3.7947,82.2098 c 0,-43.3074 35.108,-78.4156 78.416,-78.4156 43.3077,0 78.4156,35.1082 78.4156,78.4156 v 0 c 0,43.3086 -35.1079,78.4168 -78.4156,78.4168 v 0 c -43.308,0 -78.416,-35.1082 -78.416,-78.4168"
             style="fill:url(#radialGradient38);fill-rule:evenodd;stroke:none"
             id="path40" /></g></g></g><path
       d="m 132.8145,82.2104 c 0,-27.9473 -22.6562,-50.6035 -50.6038,-50.6035 -27.9476,0 -50.6038,22.6562 -50.6038,50.6035 0,27.9476 22.6562,50.6035 50.6038,50.6035 27.9476,0 50.6038,-22.6559 50.6038,-50.6035"
       style="fill:#ffffff;fill-opacity:1;fill-rule:nonzero;stroke:none"
       id="path42" /><path
       d="m 15.2541,107.1944 4.0725,-1.4437 0.6347,1.7907 4.2106,-1.4925 -0.635,-1.7906 c 0.8445,-0.2994 1.4783,-0.3725 1.8927,-0.22 0.4105,0.1531 0.745,0.5879 0.9964,1.2974 l 4.1924,-1.4862 c -0.0663,-0.2098 -0.1165,-0.364 -0.1513,-0.4623 -0.3201,-0.9026 -0.8331,-1.6793 -1.5353,-2.3315 -0.7024,-0.6523 -1.4972,-1.0916 -2.3893,-1.3204 -1.1336,-0.286 -2.4576,-0.161 -3.9716,0.3756 l -8.7307,3.0949 z"
       style="fill:#ffffff;fill-opacity:1;fill-rule:nonzero;stroke:none"
       id="path44" /><path
       d="m 22.9105,114.0982 10.0953,-5.0287 -1.8868,-3.7876 -10.0953,5.0283 z m -5.4451,0.3611 c 0.2548,0.5117 0.6568,0.868 1.2056,1.0604 0.547,0.1976 1.0683,0.171 1.559,-0.0737 0.529,-0.2633 0.8734,-0.6548 1.031,-1.1777 0.1633,-0.5211 0.1051,-1.0616 -0.1701,-1.6147 -0.2755,-0.5527 -0.6721,-0.9249 -1.1863,-1.1086 -0.5128,-0.1891 -1.0324,-0.1502 -1.5613,0.1134 -0.4907,0.2443 -0.8263,0.6443 -0.9981,1.2002 -0.1769,0.5539 -0.1346,1.0893 0.1202,1.6007"
       style="fill:#ffffff;fill-opacity:1;fill-rule:nonzero;stroke:none"
       id="path46" /><path
       d="m 28.6512,122.8887 3.7037,-2.4775 c -0.3311,-0.4943 -0.4654,-0.8966 -0.4036,-1.2073 0.0604,-0.3053 0.3469,-0.6687 0.858,-1.0853 1.7062,-1.3732 2.5132,-2.9302 2.4268,-4.6704 -0.0516,-0.9179 -0.4805,-1.9826 -1.2898,-3.1924 l -0.3263,-0.4878 -3.7227,2.4902 0.1071,0.1602 c 0.3779,0.5649 0.5279,1.0457 0.4544,1.4428 -0.0734,0.3974 -0.3928,0.8155 -0.9547,1.247 -0.9269,0.6902 -1.5409,1.231 -1.8436,1.6188 -0.3025,0.3884 -0.5114,0.9088 -0.6327,1.5613 -0.2109,1.1356 0.0949,2.3151 0.9127,3.538 z"
       style="fill:#ffffff;fill-opacity:1;fill-rule:nonzero;stroke:none"
       id="path48" /><path
       d="m 39.3276,125.9028 2.8018,3.1289 c 1.0887,-1.2181 1.6313,-2.585 1.6279,-4.1006 -0.0094,-1.516 -0.5545,-2.8361 -1.6464,-3.9663 -1.1508,-1.1914 -2.5381,-1.7997 -4.1626,-1.8198 -1.6243,-0.0199 -3.0379,0.5507 -4.2429,1.7152 -1.1444,1.1052 -1.7249,2.4656 -1.7368,4.0819 -0.0114,1.6163 0.5462,3.005 1.6673,4.1661 0.9794,1.0137 2.1623,1.5993 3.5521,1.7546 1.3901,0.1608 2.6702,-0.1477 3.8469,-0.9139 l -2.8638,-3.1923 c -0.6047,0.0686 -1.1013,-0.1012 -1.4956,-0.5091 -0.3351,-0.3473 -0.4978,-0.7433 -0.4844,-1.1855 0.013,-0.4422 0.1944,-0.8322 0.5414,-1.1676 0.3529,-0.3407 0.7625,-0.5054 1.2296,-0.5 0.4669,0.005 0.8706,0.1842 1.2113,0.5372 0.496,0.5136 0.5474,1.1724 0.1542,1.9712"
       style="fill:#ffffff;fill-opacity:1;fill-rule:nonzero;stroke:none"
       id="path50" /><path
       d="m 41.7353,141.0883 2.6346,-3.9141 c 0.3047,0.8334 0.7509,1.4499 1.3467,1.851 0.9003,0.6058 1.8343,0.76 2.8003,0.4652 0.9661,-0.2943 1.825,-0.9964 2.5688,-2.1016 l 3.9926,-5.9321 -3.5107,-2.363 -3.3287,4.9456 c -0.2693,0.4006 -0.4921,0.6415 -0.6716,0.7212 -0.1757,0.0816 -0.3866,0.0422 -0.6301,-0.1216 -0.3937,-0.2651 -0.396,-0.6906 -0.004,-1.2736 l 3.4237,-5.0865 -3.5107,-2.3627 -8.6216,12.8095 z"
       style="fill:#ffffff;fill-opacity:1;fill-rule:nonzero;stroke:none"
       id="path52" /><path
       d="m 53.8322,147.7956 1.781,-3.9362 1.7305,0.7829 1.8414,-4.07 -1.7305,-0.7829 c 0.3691,-0.8164 0.7557,-1.324 1.1525,-1.5171 0.3952,-0.1899 0.9403,-0.1298 1.6263,0.1806 l 1.8334,-4.0524 c -0.1975,-0.0978 -0.3435,-0.1687 -0.4385,-0.2112 -0.8725,-0.3949 -1.7881,-0.5633 -2.7448,-0.5091 -0.9569,0.0547 -1.8246,0.3231 -2.6076,0.8081 -0.9918,0.6191 -1.819,1.6603 -2.4811,3.1238 l -3.8183,8.439 z"
       style="fill:#ffffff;fill-opacity:1;fill-rule:nonzero;stroke:none"
       id="path54" /><path
       d="m 72.7004,142.7267 -6.2095,-1.6024 c -0.1749,0.2897 -0.2977,0.5652 -0.366,0.8305 -0.0938,0.3626 -0.119,0.739 -0.0788,1.1242 l 2.0823,0.5372 c -0.3551,0.7738 -0.919,1.0587 -1.6854,0.8612 -0.5123,-0.1324 -0.8714,-0.4561 -1.0812,-0.9729 -0.2083,-0.5204 -0.2253,-1.1191 -0.051,-1.7957 0.1834,-0.7104 0.4881,-1.2419 0.9113,-1.5991 0.423,-0.3571 0.8879,-0.4725 1.3887,-0.3435 0.4111,0.1063 0.7504,0.413 1.027,0.919 l 3.0563,-2.202 c -0.8668,-1.1367 -1.9647,-1.8748 -3.2955,-2.2181 -1.6189,-0.4178 -3.1244,-0.2242 -4.508,0.5791 -1.3835,0.8036 -2.2804,2.0078 -2.6954,3.6153 -0.4119,1.5962 -0.2041,3.0935 0.6253,4.4839 0.8294,1.3904 2.0523,2.2921 3.6751,2.7105 1.5852,0.4093 3.0549,0.2145 4.4096,-0.5843 1.3544,-0.799 2.2357,-1.9873 2.6425,-3.5651 0.0416,-0.161 0.0921,-0.4187 0.1527,-0.7778"
       style="fill:#ffffff;fill-opacity:1;fill-rule:nonzero;stroke:none"
       id="path56" /><path
       d="m 84.9586,138.3744 -4.2287,-0.1667 -0.2509,6.3618 c -0.0255,0.6483 -0.3047,0.9621 -0.8408,0.9408 -0.5289,-0.021 -0.7781,-0.3555 -0.7526,-1.0037 l 0.2509,-6.3618 -4.2284,-0.167 -0.2481,6.2847 c -0.0581,1.47 0.3793,2.7238 1.3119,3.7692 0.9323,1.0454 2.105,1.5939 3.5133,1.6495 1.6123,0.0635 2.9279,-0.468 3.9464,-1.5987 0.7959,-0.8808 1.2282,-2.1345 1.2923,-3.7628 z"
       style="fill:#ffffff;fill-opacity:1;fill-rule:nonzero;stroke:none"
       id="path58" /><path
       d="m 96.5523,136.5846 -4.1726,0.7058 1.0618,6.2776 c 0.108,0.6398 -0.1006,1.004 -0.6295,1.0936 -0.5219,0.0882 -0.8346,-0.1879 -0.9428,-0.8274 l -1.0619,-6.2779 -4.1723,0.7058 1.0488,6.2016 c 0.2452,1.4503 0.9309,2.5875 2.0585,3.4189 1.1271,0.8314 2.3874,1.1274 3.7769,0.8924 1.5914,-0.2693 2.7697,-1.0596 3.534,-2.3755 0.5978,-1.0253 0.7631,-2.3414 0.4912,-3.9481 z"
       style="fill:#ffffff;fill-opacity:1;fill-rule:nonzero;stroke:none"
       id="path60" /><path
       d="m 105.9182,145.226 -3.6306,-10.6778 -4.0067,1.3623 3.6308,10.6778 z m -0.3716,5.4445 c 0.5411,-0.184 0.9482,-0.5343 1.2124,-1.0528 0.269,-0.5156 0.3124,-1.0358 0.1361,-1.5548 -0.1902,-0.5596 -0.5321,-0.953 -1.0293,-1.1795 -0.4947,-0.2316 -1.0381,-0.2469 -1.6231,-0.0479 -0.5845,0.199 -1.0063,0.5423 -1.2575,1.0273 -0.2559,0.4827 -0.2868,1.0029 -0.0966,1.5624 0.1763,0.5188 0.5278,0.9051 1.0556,1.1495 0.5252,0.2497 1.0616,0.2795 1.6024,0.0958"
       style="fill:#ffffff;fill-opacity:1;fill-rule:nonzero;stroke:none"
       id="path62" /><path
       d="m 115.3905,140.72 -1.959,-4.0019 c -0.5341,0.2613 -0.9508,0.3407 -1.2504,0.2381 -0.2945,-0.1006 -0.6162,-0.4334 -0.9604,-0.9958 -1.1324,-1.8749 -2.5673,-2.8829 -4.3033,-3.0305 -0.9167,-0.0718 -2.0293,0.2106 -3.3366,0.8504 l -0.527,0.2582 1.9693,4.0229 0.1732,-0.0847 c 0.6103,-0.2988 1.1066,-0.383 1.4907,-0.2571 0.3838,0.1258 0.7554,0.4983 1.1075,1.1128 0.5598,1.0112 1.0134,1.692 1.3575,2.0441 0.3441,0.3518 0.832,0.6284 1.4624,0.8359 1.097,0.3615 2.3065,0.2163 3.6281,-0.4305 z"
       style="fill:#ffffff;fill-opacity:1;fill-rule:nonzero;stroke:none"
       id="path64" /><path
       d="m 119.8227,130.5232 3.4728,-2.3623 c -1.063,-1.2408 -2.3457,-1.9596 -3.8484,-2.1572 -1.5034,-0.1919 -2.8845,0.1735 -4.1496,1.1055 -1.3337,0.9825 -2.1206,2.2771 -2.3559,3.8846 -0.2352,1.6072 0.1429,3.0841 1.137,4.4331 0.9437,1.2807 2.2153,2.0367 3.816,2.2626 1.6005,0.2259 3.0509,-0.1423 4.3503,-1.0998 1.1345,-0.836 1.872,-1.931 2.2102,-3.2879 0.3436,-1.3564 0.2081,-2.6666 -0.3954,-3.9342 l -3.5442,2.4148 c -0.0122,0.6083 -0.2463,1.0783 -0.7032,1.4148 -0.3884,0.2863 -0.8025,0.3951 -1.2391,0.3231 -0.4365,-0.0717 -0.7991,-0.3033 -1.0854,-0.6916 -0.2911,-0.3949 -0.3999,-0.8229 -0.3327,-1.2847 0.0671,-0.4623 0.2984,-0.8385 0.693,-1.1296 0.5752,-0.4238 1.2351,-0.3869 1.9746,0.1088"
       style="fill:#ffffff;fill-opacity:1;fill-rule:nonzero;stroke:none"
       id="path66" /><path
       d="m 134.8472,130.5652 -11.0628,-10.7717 -2.952,3.0323 11.0625,10.7713 z"
       style="fill:#ffffff;fill-opacity:1;fill-rule:nonzero;stroke:none"
       id="path68" /><path
       d="m 134.2514,124.9019 2.4329,-3.4626 -5.2092,-3.6606 c -0.5278,-0.3708 -0.6366,-0.773 -0.3282,-1.2121 0.3041,-0.4329 0.7174,-0.4635 1.2449,-0.0927 l 5.2096,3.6607 2.4326,-3.4626 -5.1463,-3.6164 c -1.1973,-0.841 -2.4879,-1.1534 -3.8715,-0.9366 -1.3842,0.2169 -2.4809,0.9043 -3.291,2.0571 -0.9236,1.3145 -1.19,2.708 -0.7966,4.1831 0.311,1.1486 1.1279,2.1892 2.4545,3.1218 z"
       style="fill:#ffffff;fill-opacity:1;fill-rule:nonzero;stroke:none"
       id="path70" /><path
       d="m 147.5649,111.132 -8.5227,-3.5685 c -1.3853,-0.5803 -1.8709,-1.37 -1.4547,-2.3636 0.1774,-0.4235 0.4736,-0.7222 0.8861,-0.8971 0.4124,-0.1746 0.8237,-0.1783 1.2373,-0.005 0.4235,0.1771 0.7217,0.4651 0.8938,0.8637 0.172,0.3985 0.1749,0.8016 0.006,1.2041 -0.1208,0.2883 -0.381,0.5604 -0.7889,0.8249 l 4.2988,1.8 c 0.2349,-0.4416 0.4025,-0.7815 0.5008,-1.0168 0.6146,-1.4672 0.6137,-2.9449 -0.005,-4.4351 -0.6196,-1.4899 -1.6752,-2.5475 -3.164,-3.1708 -1.5242,-0.6384 -3.0288,-0.6443 -4.5181,-0.0167 -1.4894,0.6278 -2.5603,1.7158 -3.2106,3.2686 -0.3265,0.7801 -0.4731,1.6101 -0.4419,2.4939 0.0284,0.8825 0.2316,1.6875 0.6086,2.4064 0.6537,1.2577 1.7756,2.2172 3.3713,2.8853 l 8.6683,3.6301 1.6348,-3.9036 z"
       style="fill:#ffffff;fill-opacity:1;fill-rule:nonzero;stroke:none"
       id="path72" /><path
       d="m 67.4782,28.3221 -1.1092,-4.1755 1.836,-0.4878 -1.1469,-4.3177 -1.836,0.4878 c -0.2299,-0.8657 -0.2515,-1.5032 -0.0664,-1.904 0.1863,-0.3972 0.6463,-0.6951 1.374,-0.8884 l -1.1418,-4.299 c -0.2146,0.049 -0.3728,0.087 -0.4731,0.1136 -0.9258,0.2458 -1.7413,0.6945 -2.4483,1.3417 -0.7069,0.6471 -1.209,1.4037 -1.5091,2.2745 -0.3771,1.1069 -0.3598,2.4364 0.0527,3.9889 l 2.3782,8.9524 z"
       style="fill:#ffffff;fill-opacity:1;fill-rule:nonzero;stroke:none"
       id="path74" /><path
       d="m 74.7658,26.9991 -0.5077,-4.691 c 0.7702,0.4411 1.5086,0.625 2.2226,0.5479 1.0786,-0.117 1.8924,-0.6012 2.4412,-1.449 0.5491,-0.8479 0.7535,-1.9381 0.61,-3.2621 l -0.7696,-7.1096 -4.2074,0.4558 0.6417,5.9269 c 0.0522,0.4797 0.0369,0.8076 -0.049,0.984 -0.0816,0.1757 -0.2685,0.2814 -0.5601,0.3132 -0.472,0.051 -0.7481,-0.2727 -0.8235,-0.9712 l -0.6599,-6.0959 -4.2075,0.4556 1.6623,15.3507 z"
       style="fill:#ffffff;fill-opacity:1;fill-rule:nonzero;stroke:none"
       id="path76" /><path
       d="m 82.2472,22.0552 4.2197,0.3221 0.4847,-6.3485 c 0.0491,-0.6429 0.3393,-0.9422 0.8742,-0.9011 0.5273,0.0399 0.7648,0.3798 0.7158,1.0224 l -0.4845,6.3485 4.2194,0.3223 0.4788,-6.2717 c 0.1114,-1.459 -0.2798,-2.728 -1.1733,-3.8069 -0.8935,-1.0789 -2.0449,-1.6702 -3.45,-1.7776 -1.6016,-0.1222 -2.9359,0.3608 -4.0026,1.4527 -0.8282,0.8544 -1.3059,2.088 -1.4292,3.7052 z"
       style="fill:#ffffff;fill-opacity:1;fill-rule:nonzero;stroke:none"
       id="path78" /><path
       d="m 107.1162,15.0681 -4.0873,-1.0981 -1.6518,6.1489 c -0.1683,0.6267 -0.5096,0.8708 -1.0281,0.7316 -0.5108,-0.1375 -0.6803,-0.5184 -0.5119,-1.1455 l 1.652,-6.1486 -4.087,-1.0981 -1.6319,6.0743 c -0.3818,1.421 -0.2324,2.7403 0.4459,3.966 0.6783,1.2257 1.7002,2.0202 3.0611,2.3859 1.5585,0.4187 2.9594,0.1911 4.2027,-0.6863 0.9711,-0.6825 1.6696,-1.8102 2.0922,-3.384 z"
       style="fill:#ffffff;fill-opacity:1;fill-rule:nonzero;stroke:none"
       id="path80" /><path
       d="m 130.498,82.2104 c 0,-26.6681 -21.6193,-48.2862 -48.2873,-48.2862 -26.6681,0 -48.2874,21.6181 -48.2874,48.2862 0,26.6683 21.6193,48.2873 48.2874,48.2873 26.668,0 48.2873,-21.619 48.2873,-48.2873"
       style="fill:#1c1c1c;fill-opacity:1;fill-rule:nonzero;stroke:none"
       id="path82" /><path
       d="m 128.7899,82.2104 c 0,-25.7244 -20.8545,-46.5792 -46.5792,-46.5792 -25.7247,0 -46.5792,20.8548 -46.5792,46.5792 0,25.7255 20.8545,46.5792 46.5792,46.5792 25.7247,0 46.5792,-20.8537 46.5792,-46.5792"
       style="fill:#ffffff;fill-opacity:1;fill-rule:nonzero;stroke:none"
       id="path84" /><g
       id="g86"><g
         id="g88"
         clip-path="url(#clipPath92)"><g
           id="g94"><path
             d="m 68.1735,126.6347 59.6506,-53.8991 c 0.6324,3.0586 0.9658,6.2277 0.9658,9.4742 v 0 c 0,25.7256 -20.8548,46.5795 -46.5792,46.5795 -4.8923,0 -9.6072,-0.7557 -14.0372,-2.1546"
             style="fill:url(#radialGradient102);fill-rule:evenodd;stroke:none"
             id="path104" /></g></g></g><g
       id="g106"><g
         id="g108"
         clip-path="url(#clipPath112)"><g
           id="g114"><path
             d="m 35.6312,82.2098 c 0,-25.7244 20.8548,-46.578 46.5795,-46.578 4.589,0 9.0218,0.6664 13.2111,1.904 v 0 L 36.4323,90.8371 c -0.5239,-2.7958 -0.8011,-5.679 -0.8011,-8.6273"
             style="fill:url(#radialGradient122);fill-rule:evenodd;stroke:none"
             id="path124" /></g></g></g><path
       d="m 56.8902,85.6551 c -0.3342,-0.336 -0.669,-0.671 -1.0032,-1.0069 -0.3651,-0.197 -0.7296,-0.3929 -1.1857,-0.6389 0.0944,1.0978 0.18,2.1098 0.2681,3.1212 0.1863,2.1331 0.3717,4.2658 0.563,6.3978 0.0445,0.4975 -0.0898,0.7291 -0.6593,0.8011 -2.9489,0.3758 -5.8907,0.809 -8.8353,1.2189 -0.2656,0.0374 -0.6531,-0.0624 -0.4332,0.4419 2.3967,1.6047 4.7931,3.2094 7.1918,4.8129 1.0415,0.6968 1.0514,0.7013 0.4232,1.7453 -1.4434,2.4029 -2.8984,4.8005 -4.348,7.1997 v 0.5749 c 1.0071,-0.2985 2.0029,-0.5936 2.9982,-0.8892 0.1508,0.007 0.3013,0.0144 0.4524,0.0204 0.108,-0.0998 0.199,-0.2503 0.3265,-0.2911 1.3641,-0.4448 2.734,-0.8714 4.1026,-1.3028 0.3039,-0.0613 0.6432,-0.0559 0.9062,-0.1951 0.7583,-0.4025 1.0851,-0.0649 1.3309,0.6256 0.5902,1.6515 1.2147,3.2913 1.8247,4.9357 0.409,1.1024 0.8146,2.2062 1.2322,3.3046 0.0706,0.1846 0.1953,0.3484 0.3861,0.6781 1.1832,-3.1567 2.3111,-6.1637 3.439,-9.1698 -0.0332,-0.4025 -0.0579,-0.9105 0.5238,-0.7546 0.9558,0.2557 1.8746,0.6486 2.8083,0.9836 0.5916,0.2078 1.184,0.4142 1.7765,0.622 1.3498,0.422 2.6988,0.8455 4.0484,1.2676 0.303,0.0607 0.606,0.1225 1.1157,0.224 -0.3155,-0.5454 -0.5383,-0.9411 -0.7707,-1.3303 -1.3694,-2.2978 -2.7414,-4.5939 -4.1128,-6.8908 -0.2565,-0.4294 -0.4578,-0.8206 0.1222,-1.1993 2.6773,-1.7516 5.3413,-3.5238 8.0095,-5.2886 -2.3153,-0.3546 -4.6301,-0.7129 -6.9474,-1.061 -1.1466,-0.1729 -2.2969,-0.3263 -3.5175,-0.4981 0.1032,-1.2234 0.1922,-2.3139 0.2886,-3.4027 0.1791,-2.0279 0.3767,-4.0549 0.5266,-6.0851 0.0185,-0.2449 -0.2123,-0.5088 -0.3271,-0.7637 l -1.1715,1.1628 c -0.7671,0.7138 -1.5344,1.4281 -2.3015,2.1427 l -1.1628,1.1636 c -0.8203,0.7671 -1.6401,1.5344 -2.4604,2.3003 -0.214,-0.1148 -0.4677,-0.1896 -0.6373,-0.3529 -0.7891,-0.7616 -1.5556,-1.5466 -2.3298,-2.3244 -0.8206,-0.7659 -1.6412,-1.5332 -2.461,-2.2994"
       style="fill:#edc205;fill-opacity:1;fill-rule:nonzero;stroke:none"
       id="path126" /><path
       d="m 56.8902,85.6551 c -0.3342,-0.336 -0.669,-0.671 -1.0032,-1.0069 -0.3651,-0.197 -0.7296,-0.3929 -1.1857,-0.6389 0.0944,1.0978 0.18,2.1098 0.2681,3.1212 0.1863,2.1331 0.3717,4.2658 0.563,6.3978 0.0445,0.4975 -0.0898,0.7291 -0.6593,0.8011 -2.9489,0.3758 -5.8907,0.809 -8.8353,1.2189 -0.2656,0.0374 -0.6531,-0.0624 -0.4332,0.4419 2.3967,1.6047 4.7931,3.2094 7.1918,4.8129 1.0415,0.6968 1.0514,0.7013 0.4232,1.7453 -1.4434,2.4029 -2.8984,4.8005 -4.348,7.1997 v 0.5749 c 1.0071,-0.2985 2.0029,-0.5936 2.9982,-0.8892 0.1508,0.007 0.3013,0.0144 0.4524,0.0204 0.108,-0.0998 0.199,-0.2503 0.3265,-0.2911 1.3641,-0.4448 2.734,-0.8714 4.1026,-1.3028 0.3039,-0.0613 0.6432,-0.0559 0.9062,-0.1951 0.7583,-0.4025 1.0851,-0.0649 1.3309,0.6256 0.5902,1.6515 1.2147,3.2913 1.8247,4.9357 0.409,1.1024 0.8146,2.2062 1.2322,3.3046 0.0706,0.1846 0.1953,0.3484 0.3861,0.6781 1.1832,-3.1567 2.3111,-6.1637 3.439,-9.1698 -0.0332,-0.4025 -0.0579,-0.9105 0.5238,-0.7546 0.9558,0.2557 1.8746,0.6486 2.8083,0.9836 0.5916,0.2078 1.184,0.4142 1.7765,0.622 1.3498,0.422 2.6988,0.8455 4.0484,1.2676 0.303,0.0607 0.606,0.1225 1.1157,0.224 -0.3155,-0.5454 -0.5383,-0.9411 -0.7707,-1.3303 -1.3694,-2.2978 -2.7414,-4.5939 -4.1128,-6.8908 -0.2565,-0.4294 -0.4578,-0.8206 0.1222,-1.1993 2.6773,-1.7516 5.3413,-3.5238 8.0095,-5.2886 -2.3153,-0.3546 -4.6301,-0.7129 -6.9474,-1.061 -1.1466,-0.1729 -2.2969,-0.3263 -3.5175,-0.4981 0.1032,-1.2234 0.1922,-2.3139 0.2886,-3.4027 0.1791,-2.0279 0.3767,-4.0549 0.5266,-6.0851 0.0185,-0.2449 -0.2123,-0.5088 -0.3271,-0.7637 l -1.1715,1.1628 c -0.7671,0.7138 -1.5344,1.4281 -2.3015,2.1427 l -1.1628,1.1636 c -0.8203,0.7671 -1.6401,1.5344 -2.4604,2.3003 -0.214,-0.1148 -0.4677,-0.1896 -0.6373,-0.3529 -0.7891,-0.7616 -1.5556,-1.5466 -2.3298,-2.3244 -0.8206,-0.7659 -1.6412,-1.5332 -2.461,-2.2994 z"
       style="fill:none;stroke:#1c1c1c;stroke-width:0.5;stroke-linecap:butt;stroke-linejoin:miter;stroke-miterlimit:10;stroke-dasharray:none;stroke-opacity:1"
       id="path128" /><path
       d="m 104.1378,85.3807 c 0,-2.1975 0.2259,-3.4844 0.2259,-5.6475 -1.5395,0.326 -3.6374,-0.1998 -5.6474,0.2259 0,1.2799 -0.0066,2.5614 8e-4,3.8412 0.0113,2.0379 0.4269,2.2315 -0.9045,2.9359 -0.3495,-1.5004 -0.2305,-3.5719 -0.2257,-5.4221 0.0111,-4.2594 -0.6199,-2.3284 -1.1299,-4.5179 h -0.6777 c -0.1724,0.7407 -0.3232,0.6384 -0.4278,1.3796 -0.1516,1.0758 0.574,4.72 -0.7015,4.72 -0.8717,0 -0.7039,-0.7197 -0.6974,-1.5619 0.0272,-3.5229 0.0649,-3.7196 -1.0156,-6.891 -0.0579,-0.1692 -0.1126,-0.3283 -0.1797,-0.4978 -0.0202,-0.0507 -0.0474,-0.108 -0.0681,-0.1581 l -0.6244,-1.6342 c -0.4224,-1.1894 -0.9814,-2.3131 -1.2552,-3.4889 h -0.4519 c -0.3007,1.2912 -1.1812,2.6164 -1.5054,3.9161 -0.4561,1.8277 -0.1438,3.2496 -0.396,5.0255 -0.2288,1.6087 0.4283,2.2385 -1.0353,2.5793 -0.6162,-1.2841 -0.2925,-6.7882 -1.2563,-9.3612 l -0.7033,-1.3297 c -0.2327,-0.383 -0.0079,0.0397 -0.2647,-0.413 l -0.8796,-1.6143 c -0.3878,-0.5726 -0.4567,-1.0738 -0.2344,-1.6668 0.8297,-2.2125 0.4016,-6.66 0.4016,-9.1089 0,-2.0729 -0.4518,-3.1226 -0.4518,-5.1956 v -6.3255 c 0,-1.0375 0.2032,-1.3195 0.1862,-2.0171 -0.0408,-1.6739 -0.9014,-6.2272 -0.9014,-7.9124 1.262,-0.2939 0.817,-0.4748 2.7099,-0.4524 1.5968,0.019 2.8307,1.1452 4.1585,1.292 l 2.5945,0.0817 c 1.6319,0.0969 0.5692,0.6069 2.2303,0.7069 1.4936,0.0905 2.3292,1.0024 3.5963,1.6336 1.198,0.597 1.0095,0.3243 2.2907,0.6461 1.2949,0.3251 2.4931,1.108 3.1496,1.3685 1.1285,0.4482 0.9692,0.2038 2.1934,0.9692 1.1209,0.701 2.3329,1.0369 3.3537,1.8419 l 1.1991,0.8343 c 0.909,0.4728 1.7591,1.2662 2.5276,1.9905 0.2716,0.2559 0.1162,0.1221 0.3677,0.3101 1.3439,1.0037 2.3816,2.9021 3.5515,2.9993 0.1066,1.2813 0.2344,0.4485 0.7537,1.2796 0.4757,0.7619 -0.1462,0.3778 0.7807,1.2523 1.1293,1.0653 -0.0536,-0.3586 0.9955,1.0378 0.2211,0.2937 0.633,0.8076 0.633,1.1744 v 12.6504 h 0.9034 c -0.1573,1.889 -1.8062,2.3511 -2.4367,4.792 -0.2639,1.0216 -0.4861,0.9831 -0.6511,1.6081 -0.1635,0.6199 -0.0572,1.222 -0.4297,1.8295 -0.4346,0.7081 -0.2926,-0.053 -0.5139,0.8413 -0.2965,1.1982 0.0952,4.5111 -0.3141,5.5908 -0.3334,0.8801 -1.0613,0.6539 -1.2283,-0.1959 -0.3535,-1.8 0.2123,-4.4011 -0.6222,-7.3661 l -0.2744,-0.629 c -0.0218,-0.0468 -0.0586,-0.0989 -0.0793,-0.1466 l -0.2308,-0.8988 c -0.1341,-1.0307 -0.9932,-3.4759 -1.8037,-4.0697 -0.7928,0.5309 -0.3628,0.299 -0.8172,0.9898 l -2.6861,4.3172 c -0.5944,1.1806 -1.5304,2.2731 -1.9185,3.2771 -1.0188,0.7886 -1.2229,1.2201 -1.6152,1.9996 -0.6018,1.1962 -0.0805,4.2355 -0.1893,5.684 -0.0678,0.9045 -0.2002,1.4766 -1.1322,1.5786 -0.2954,-0.5955 -0.2259,0.186 -0.2259,-0.6777"
       style="fill:#1c1c1c;fill-opacity:1;fill-rule:evenodd;stroke:none"
       id="path130" /></g></svg>
