<?xml version="1.0" encoding="UTF-8" standalone="no"?>
<svg
   xmlns:dc="http://purl.org/dc/elements/1.1/"
   xmlns:cc="http://creativecommons.org/ns#"
   xmlns:rdf="http://www.w3.org/1999/02/22-rdf-syntax-ns#"
   xmlns:svg="http://www.w3.org/2000/svg"
   xmlns="http://www.w3.org/2000/svg"
   id="svg8"
   version="1.1"
   viewBox="0 0 208.28779 113.55201"
   height="429.17291"
   width="787.22943">
  <defs
     id="defs2" />
  <metadata
     id="metadata5">
    <rdf:RDF>
      <cc:Work
         rdf:about="">
        <dc:format>image/svg+xml</dc:format>
        <dc:type
           rdf:resource="http://purl.org/dc/dcmitype/StillImage" />
        <dc:title></dc:title>
      </cc:Work>
    </rdf:RDF>
  </metadata>
  <g
     transform="translate(0.00974929,-56.290196)"
     id="layer1">
    <path
       id="path851"
       d="m 42.779429,159.11461 c -0.05959,-0.0512 -3.952324,-0.18474 -8.650523,-0.29681 -7.26027,-0.17318 -8.842152,-0.30753 -10.541078,-0.8952 -1.964806,-0.67964 -4.745973,-2.34747 -5.919206,-3.54966 -0.327929,-0.33603 -0.87707,-0.82036 -1.220311,-1.0763 -0.93873,-0.69997 -3.471105,-4.17955 -3.764276,-5.17226 -0.141581,-0.47941 -0.393684,-1.04291 -0.560229,-1.25221 -0.166546,-0.20931 -0.564494,-1.69983 -0.88433,-3.31228 -0.926515,-4.671 -0.869479,-50.020678 0.06704,-53.304048 0.646636,-2.26706 2.277695,-5.66375 3.127981,-6.51403 0.250704,-0.25071 0.509059,-0.58371 0.574121,-0.74002 0.06506,-0.15631 1.138128,-1.14321 2.384589,-2.19311 3.669673,-3.09099 7.112672,-4.23427 12.422699,-4.12504 1.558995,0.0321 3.017167,-0.0546 3.24038,-0.19253 0.412269,-0.25479 0.304892,-4.454576 -0.179973,-7.039124 -0.361084,-1.924749 0.244028,-2.141945 5.53824,-1.987863 2.484063,0.07229 4.628234,0.200513 4.764821,0.284929 0.136588,0.08442 5.647951,0.08636 12.247472,0.0043 6.599521,-0.08204 22.354345,-0.130952 35.010718,-0.108689 12.656366,0.02226 24.000616,0.01299 25.209436,-0.0206 2.54433,-0.07071 3.53753,0.459722 5.1103,2.729233 1.09378,1.578318 1.61798,1.727792 2.60342,0.742353 1.11468,-1.114679 5.74716,-3.157444 8.45982,-3.73049 4.35254,-0.919469 11.57619,-0.503876 15.09769,0.868601 3.05948,1.192411 6.71762,3.532425 8.83973,5.654539 0.75132,0.751315 1.49205,1.366029 1.64607,1.366029 0.15403,0 0.65544,0.353019 1.11425,0.784486 0.8222,0.773206 1.00296,0.787166 12.57424,0.970626 11.03386,0.17494 11.87278,0.23339 13.94662,0.97176 5.97646,2.12787 10.44072,6.68115 12.02572,12.26553 0.59237,2.08706 0.64203,3.85178 0.62793,22.314268 -0.0229,30.05111 -0.0928,30.96893 -2.7433,36.02451 -3.12003,5.95129 -8.06742,9.24696 -15.42919,10.27807 -2.2642,0.31713 -136.377193,0.56332 -136.74087,0.25102 z M 181.2636,156.45197 c 5.44936,-1.0601 11.78072,-6.68041 12.45155,-11.05318 0.10834,-0.70621 0.31454,-1.44091 0.45822,-1.63267 0.57398,-0.76605 0.70713,-4.67313 0.83768,-24.58056 0.16594,-25.304948 3.5e-4,-28.015548 -1.93695,-31.729828 -2.21311,-4.2428 -6.33398,-6.89225 -12.15916,-7.81755 -2.312,-0.36725 -4.73859,-0.40418 -15.77689,-0.24008 -1.62638,0.0242 -2.70211,0.18567 -2.70211,0.40566 0,0.20102 1.09828,1.44862 2.44062,2.77245 1.34234,1.32383 2.44062,2.5819 2.44062,2.79571 0,0.21382 0.42807,0.94999 0.95127,1.63593 0.97686,1.28074 1.40766,2.26517 2.53611,5.79541 0.59154,1.85058 0.83229,3.25398 0.73349,4.27583 -0.0237,0.24501 -1.80789,0.46667 -4.97238,0.61773 -5.54105,0.26451 -5.45019,0.29675 -6.85636,-2.43263 -0.62791,-1.21877 -2.01414,-2.7267 -3.59588,-3.91153 -1.36758,-1.02442 -5.80524,-1.49575 -8.77633,-0.93214 -6.67155,1.26557 -9.33021,5.23708 -9.58239,14.314178 -0.16293,5.86461 -0.0268,6.14306 2.65545,5.43368 2.95575,-0.78171 5.77303,-3.81198 6.27556,-6.75 l 0.25511,-1.49152 6.38859,-0.0474 6.3886,-0.0474 6.41453,6.37375 c 6.70873,6.66607 6.82832,6.84693 5.92674,8.96316 -0.26829,0.62974 -0.76963,1.85101 -1.1141,2.71395 -0.34446,0.86293 -1.18401,2.4019 -1.86566,3.41992 -0.68165,1.01802 -1.44404,2.23397 -1.69421,2.70212 -0.25017,0.46814 -0.61473,0.85117 -0.81013,0.85117 -0.19541,0 -0.93211,0.55535 -1.63712,1.23411 -3.8646,3.72073 -5.98648,4.57608 -12.15281,4.89891 -4.77062,0.24975 -9.11127,-0.32912 -10.67364,-1.42345 -0.41275,-0.2891 -1.09854,-0.52565 -1.52396,-0.52565 -0.42542,0 -0.87118,-0.15805 -0.99057,-0.35123 -0.11939,-0.19318 -0.79546,-0.64097 -1.50239,-0.99509 -7.20903,-3.61126 -10.6472,-6.31474 -16.50239,-12.9761 -3.10445,-3.53188 -3.95039,-4.58803 -4.79538,-5.98705 -1.65506,-2.74022 -1.75325,-2.21699 -1.76257,9.39257 -0.005,5.88503 -0.14746,10.83892 -0.31718,11.00865 -0.4018,0.4018 -13.35656,0.35124 -14.4087,-0.0562 -0.443157,-0.17163 -1.433337,-0.97282 -2.200388,-1.78043 -0.767053,-0.80761 -2.251743,-2.27514 -3.299314,-3.26118 -1.047571,-0.98604 -2.812665,-2.66985 -3.92243,-3.74181 l -2.017757,-1.94901 -0.03316,-2.23491 c -0.01824,-1.22921 -0.02081,-7.56942 -0.0057,-14.08937 0.0151,-6.519948 -0.111847,-12.074748 -0.282111,-12.343998 -0.325778,-0.51516 -1.149237,-0.58269 -9.125326,-0.74835 -2.414891,-0.0502 -4.563783,0.0158 -4.775315,0.1465 -0.263033,0.16257 -0.393422,3.07273 -0.412504,9.206728 -0.0671,21.56958 -0.203304,30.37328 -0.474112,30.64427 -0.159585,0.1597 -3.392058,0.32448 -7.183273,0.36618 l -6.893117,0.0758 -2.458265,-2.51644 c -1.352046,-1.38405 -3.962292,-3.91592 -5.800549,-5.62639 l -3.342286,-3.10995 -0.09094,-14.49741 -0.09096,-14.497398 -1.495851,-0.1079 c -1.43079,-0.1032 -1.75972,-0.3744 -7.562681,-6.23531 l -6.066829,-6.12742 -3.245792,0.2443 c -3.694639,0.27809 -7.086413,1.19914 -8.707891,2.36468 -4.33359,3.11503 -6.744598,7.01641 -7.212699,11.67124 -0.437636,4.35188 -0.252868,47.209448 0.213913,49.617828 0.492737,2.5423 1.679435,5.65068 2.533015,6.63487 0.378603,0.43653 0.688368,0.90594 0.688368,1.04313 0,0.53017 3.290023,3.5046 4.830509,4.36714 2.939336,1.64579 4.748998,1.90285 13.02817,1.85065 4.186126,-0.0264 7.67477,0.0157 7.752538,0.0934 0.354037,0.35404 136.781207,0.2723 138.607837,-0.083 z M 58.360805,152.33408 c -3.864472,-0.55449 -6.031052,-4.24284 -5.04929,-8.59583 0.371749,-1.64829 0.162085,-1.8867 -1.305716,-1.48477 -1.569439,0.42977 -1.793635,1.06012 -1.891943,5.31938 -0.07237,3.13548 -0.183988,3.79199 -0.690843,4.06325 -0.864712,0.46278 -2.245491,0.3992 -2.679183,-0.12337 -0.415237,-0.50033 -0.653177,-11.43226 -0.262583,-12.06426 0.355829,-0.57574 2.189221,-0.4723 3.184249,0.17967 0.806124,0.52819 0.915415,0.52632 1.525871,-0.0262 1.048596,-0.94896 2.594344,-0.59419 2.809526,0.64485 0.165687,0.95401 0.206596,0.97636 0.698977,0.38181 1.333257,-1.6099 6.315977,-2.15797 8.716511,-0.95877 2.617522,1.3076 3.5678,6.30751 1.835861,9.65945 -1.155607,2.23652 -3.901469,3.43374 -6.891437,3.00473 z m 3.15379,-3.67087 c 1.611686,-1.61168 1.002814,-5.91669 -0.933109,-6.59752 -2.217394,-0.77982 -3.789653,0.87527 -3.789653,3.9893 0,2.8988 2.855298,4.47569 4.722762,2.60822 z m 31.886581,3.72725 c -1.49941,-0.16793 -2.3514,-0.88785 -3.157207,-2.66779 l -0.618102,-1.36531 -0.641678,1.36277 c -0.894042,1.89873 -2.408483,2.58363 -5.593548,2.52968 -3.044831,-0.0516 -4.526714,-1.00579 -4.86117,-3.13019 -0.190853,-1.21225 -0.146713,-1.28278 0.954053,-1.52455 0.999554,-0.21954 1.257685,-0.12367 1.926991,0.71572 0.935794,1.1736 3.436651,1.45126 4.079776,0.45297 0.584697,-0.9076 -0.294837,-1.68537 -1.905889,-1.68537 -1.792143,0 -4.669752,-1.45919 -4.951428,-2.5108 -0.535807,-2.00039 -0.248936,-3.6867 0.806765,-4.7424 2.489791,-2.48979 9.082866,-1.39584 9.644952,1.60033 0.371368,1.97957 -2.070011,2.60789 -3.652134,0.93993 -0.848145,-0.89416 -2.245471,-1.12272 -3.188514,-0.52155 -1.049102,0.66878 0.112251,1.5152 2.922636,2.13008 2.864287,0.62667 3.857934,1.24343 4.20019,2.60709 0.28026,1.11664 0.615399,1.0671 1.364946,-0.20178 0.810918,-1.37277 2.013447,-1.95371 4.674159,-2.25805 1.721769,-0.19694 2.179127,-0.37379 2.179127,-0.84261 0,-1.57801 -1.852244,-1.88021 -3.423019,-0.55849 -2.206197,1.85639 -4.54506,0.61211 -3.184367,-1.69409 0.901935,-1.52866 2.190898,-2.04852 5.038498,-2.03209 5.137717,0.0296 5.276857,0.2175 5.449237,7.35716 0.1478,6.12129 7e-4,6.49202 -2.253857,5.67679 -0.7652,-0.27669 -1.49043,-0.32217 -2.020262,-0.12668 -1.317685,0.48618 -2.478982,0.63608 -3.790155,0.48923 z m 3.757685,-3.4142 c 0.810454,-0.56767 1.050432,-2.03508 0.398696,-2.43788 -0.206912,-0.12788 -1.072138,-0.0377 -1.922719,0.20049 -1.539141,0.43093 -2.294029,1.48759 -1.722919,2.41167 0.341324,0.55227 2.364695,0.44367 3.246942,-0.17428 z m -62.86292,3.00806 c -2.498446,-0.59918 -4.16268,-2.5318 -5.173019,-6.00725 -1.460829,-5.02507 -0.05892,-9.36544 3.650603,-11.30237 1.565994,-0.81768 6.987634,-0.91243 8.473869,-0.14808 1.111177,0.57146 3.667015,4.00473 3.68116,4.94491 0.02263,1.50349 -3.483731,0.92791 -4.255059,-0.69848 -1.07158,-2.25949 -4.524418,-2.68647 -6.346335,-0.7848 -1.283537,1.33973 -1.9906,5.56919 -1.272128,7.60954 1.298744,3.68824 5.06067,4.53229 7.655366,1.71761 1.187547,-1.28823 0.782756,-1.98031 -1.158275,-1.98031 -1.280375,0 -1.674951,-0.15731 -2.127686,-0.84827 -0.596186,-0.90989 -0.226451,-2.2541 0.639166,-2.32375 2.152889,-0.17322 4.481826,-0.12771 5.537228,0.1082 l 1.278405,0.28576 0.126219,4.26548 c 0.159456,5.38886 -0.563722,6.70606 -2.54921,4.64314 -0.677761,-0.70419 -0.927259,-0.77751 -1.518402,-0.44619 -2.145583,1.20253 -4.32858,1.51965 -6.641902,0.96486 z m 33.273139,-1.01985 c -1.760763,-1.76076 -1.760882,-2.82784 -3.49e-4,-3.33066 1.105682,-0.31579 1.257618,-0.25697 2.175135,0.84206 1.355034,1.62312 4.132345,1.63607 4.132345,0.0193 0,-0.92089 -0.601426,-1.24977 -3.096506,-1.69329 -3.39119,-0.6028 -4.560157,-2.12343 -4.002988,-5.2072 0.383569,-2.12292 1.681956,-2.88278 4.927294,-2.88358 3.371804,-7e-4 5.956082,1.99719 5.184357,4.00827 -0.323515,0.84307 -2.252758,0.63799 -3.446341,-0.36634 -1.187213,-0.99897 -2.585808,-1.03337 -3.183747,-0.0783 -0.54982,0.87821 0.110009,1.36625 2.105804,1.55753 3.597977,0.34485 4.968725,1.43673 4.987131,3.97254 0.0096,1.32369 -0.191,1.83242 -1.168476,2.9632 l -1.18008,1.36515 -3.00888,0.12357 -3.008884,0.12357 -1.415798,-1.41581 z m 44.4649,0.84534 c -0.61804,-0.45521 -0.66916,-0.89037 -0.58889,-5.01227 0.10262,-5.26964 -0.0193,-5.51789 -2.52536,-5.14208 -0.86468,0.12967 -1.58442,0.42226 -1.59943,0.65022 -0.015,0.22795 -0.0242,2.29222 -0.0204,4.58725 0.008,4.68791 -0.14675,5.06671 -2.06637,5.06671 -1.77303,0 -1.79366,-0.0613 -1.74351,-5.17778 0.0425,-4.34117 0.0238,-4.45769 -0.83873,-5.20763 -1.10165,-0.95787 -1.11625,-1.58419 -0.0532,-2.28074 0.58914,-0.38602 0.89891,-1.00883 1.07034,-2.152 0.31658,-2.11112 1.64484,-3.02268 4.20213,-2.88384 1.6592,0.0901 1.74788,0.14511 1.83811,1.14062 0.0783,0.8639 -0.11895,1.18309 -1.13315,1.83367 -1.44219,0.92512 -1.53945,1.37743 -0.39016,1.81439 0.46078,0.17519 0.94073,0.4851 1.06656,0.68869 0.61049,0.9878 2.50792,-0.87 2.55394,-2.50061 0.0495,-1.75462 1.69888,-3.05645 3.87237,-3.05645 2.07472,0 2.78122,0.62574 2.1847,1.93495 -0.2176,0.47759 -0.76841,1.01006 -1.22402,1.18328 -1.59352,0.60585 -1.33213,2.11167 0.36654,2.11167 1.33412,0 1.06924,1.48668 -0.38876,2.18195 l -1.19068,0.5678 -0.037,4.61266 c -0.0224,2.7907 -0.18867,4.79542 -0.42099,5.07535 -0.50585,0.60951 -2.0841,0.59025 -2.93409,-0.0358 z m 8.59434,0.11842 c -3.87925,-1.55105 -4.40179,-10.44674 -0.72532,-12.34791 2.65205,-1.37143 7.5496,-0.79507 9.00896,1.06021 2.41058,3.06456 1.06974,9.79534 -2.22563,11.17223 -1.33633,0.55836 -4.78589,0.62411 -6.05801,0.11547 z m 4.69293,-2.87338 c 0.0105,-0.0323 0.28538,-0.48477 0.61087,-1.00537 0.72326,-1.15683 0.7604,-3.03058 0.0918,-4.63081 -0.62229,-1.48935 -1.88352,-1.89282 -3.50291,-1.12059 -2.1358,1.01849 -2.02124,5.64987 0.16766,6.77819 0.67292,0.34688 2.51804,0.33186 2.6326,-0.0214 z m 20.72114,2.52569 c -2.76429,-1.60373 -4.25467,-6.49825 -2.82939,-9.29201 1.48381,-2.90851 4.04284,-3.98475 7.64027,-3.21324 2.75037,0.58985 4.49703,3.24373 4.19385,6.37213 l -0.10738,1.10798 -2.44063,0.0435 c -5.87156,0.10463 -5.75289,0.0887 -5.75289,0.77412 0,1.71447 2.25367,2.27263 4.44152,1.10002 1.32668,-0.71106 2.38908,-0.86396 3.37482,-0.48569 0.69324,0.26602 0.72243,1.48796 0.0418,1.74915 -0.28035,0.10758 -0.59573,0.4666 -0.70086,0.79782 -0.54265,1.70976 -5.5652,2.3782 -7.8611,1.04622 z m 5.13741,-8.20978 c 0.21073,-0.64021 -0.91988,-1.52227 -1.95123,-1.52227 -1.28198,0 -2.30963,0.78191 -2.01991,1.53691 0.26534,0.69146 3.74294,0.67864 3.97114,-0.0147 z m 6.54922,8.68892 c -0.38353,-0.0922 -0.84842,-0.31144 -1.0331,-0.48709 -0.42368,-0.40298 -0.53098,-11.42876 -0.11923,-12.25189 0.37674,-0.75314 1.71784,-0.78638 3.09043,-0.0766 0.75796,0.39195 1.20997,0.43822 1.70306,0.17433 0.99197,-0.53089 2.38264,-0.43628 2.73076,0.18578 0.27659,0.49425 0.34714,0.49425 0.75733,0 0.57058,-0.68751 2.75339,-0.69572 3.65487,-0.0137 0.56891,0.43039 0.75759,0.43576 1.22031,0.0348 0.82116,-0.71163 3.48128,-0.94795 4.53529,-0.4029 2.15403,1.11389 2.29216,1.54852 2.24149,7.05256 -0.0516,5.60834 -0.16016,5.89878 -2.14068,5.72845 -1.73639,-0.14932 -1.81095,-0.33797 -1.81712,-4.59772 -0.005,-3.21949 -0.0947,-3.77827 -0.71625,-4.44542 -1.89606,-2.03518 -3.15626,-0.37671 -3.16965,4.17139 -0.005,1.79249 -0.0891,3.54263 -0.18632,3.8892 -0.23026,0.82103 -1.72073,1.37357 -2.9669,1.09987 l -0.98541,-0.21644 v -5.37654 c 0,-4.94528 -0.20626,-6.1045 -0.88949,-4.99902 -0.12832,0.20764 -0.90194,0.66412 -1.71915,1.01442 -1.71769,0.73629 -1.85025,1.14569 -1.91441,5.91236 -0.0491,3.6472 -0.31914,4.07487 -2.27583,3.60422 z m -26.69165,-0.36153 c -0.0105,-0.14383 -0.0627,-3.99731 -0.11597,-8.56329 -0.10707,-9.17832 -0.0765,-9.30556 2.23491,-9.30556 1.4223,0 1.73545,0.61026 1.73545,3.382 0,1.98365 0.11086,2.54522 0.50242,2.54522 0.75448,0 1.04872,-0.68981 1.09224,-2.56058 0.0427,-1.83589 0.44006,-2.30667 1.95421,-2.31532 1.20988,-0.007 2.0297,0.83443 2.0297,2.08301 0,1.33711 0.32454,2.09557 0.89669,2.09557 0.58517,0 1.23239,1.13568 0.90945,1.59582 -0.13044,0.18586 -0.63749,0.59208 -1.12678,0.90272 -0.81235,0.51574 -0.89703,0.79715 -0.97502,3.24004 -0.10555,3.3064 0.071,3.89192 1.26348,4.19123 0.96453,0.24208 1.45798,0.73434 1.46746,1.46392 0.0216,1.66247 -3.92836,2.13729 -5.41474,0.65091 -0.92607,-0.92607 -0.91822,-0.87304 -0.85861,-5.7976 0.0323,-2.66901 -0.0715,-3.43406 -0.51614,-3.80306 -1.04616,-0.86823 -1.28941,0.084 -1.24656,4.87986 0.027,3.01899 -0.0972,4.77735 -0.35965,5.09361 -0.41557,0.50073 -3.43801,0.69352 -3.47254,0.2215 z m 13.00342,-31.85125 c 2.12931,-0.41078 6.89002,-2.3847 7.93533,-3.2902 4.73471,-4.10146 6.93099,-7.5776 6.96183,-11.01876 0.0145,-1.61808 -0.20393,-1.69472 -4.81122,-1.6881 -4.27794,0.006 -4.17986,-0.0341 -5.43544,2.23157 -1.025,1.84962 -3.25349,4.38764 -3.85255,4.38764 -0.20303,0 -0.99441,0.34624 -1.75862,0.76943 -1.81439,1.00474 -6.41671,1.0832 -9.12794,0.15562 -2.45591,-0.84021 -5.68232,-4.02976 -7.03491,-6.9545 -2.1867,-4.728368 -2.97879,-13.471398 -1.6017,-17.679468 1.80838,-5.52599 6.0665,-9.15581 11.41048,-9.72681 6.31422,-0.67467 9.74003,1.22666 11.87773,6.59217 l 0.7627,1.91433 4.79142,0.0952 4.79143,0.0952 v -0.81759 c 0,-1.4216 -1.10002,-4.1751 -2.60488,-6.52037 -3.48536,-5.431806 -8.81698,-8.476071 -15.77278,-9.005997 -10.0895,-0.768665 -17.13309,2.343724 -21.83629,9.648917 -1.67331,2.59904 -3.01994,5.66563 -3.01994,6.87708 0,0.44135 -0.1621,1.2288 -0.36021,1.74988 -0.31103,0.81809 -0.47117,8.76302 -0.22778,11.30109 0.0982,1.0241 1.22698,5.443268 1.64755,6.450218 0.16019,0.38353 0.40071,1.08956 0.53449,1.56897 0.13378,0.47941 0.33976,0.9501 0.45774,1.04598 0.11798,0.0959 0.79979,1.03727 1.51514,2.09197 0.71536,1.05469 2.00976,2.60988 2.87645,3.45597 0.8667,0.84609 1.57581,1.65865 1.57581,1.8057 0,0.41227 5.0356,3.45484 5.71792,3.45484 0.33209,0 0.94651,0.19128 1.36537,0.42506 1.52945,0.85366 9.9086,1.22432 13.22287,0.58494 z m -83.571312,-1.72917 c 0.245733,-0.19857 0.383837,-6.76535 0.421754,-20.054388 0.031,-10.86752 0.154335,-19.85699 0.274058,-19.97659 0.119723,-0.1196 3.420895,-0.16398 7.33594,-0.0986 5.770069,0.0963 7.122627,0.0303 7.141294,-0.34866 0.118813,-2.411822 -0.135869,-6.814814 -0.410227,-7.092047 -0.218045,-0.220332 -6.145495,-0.371608 -16.104467,-0.411008 -8.667681,-0.03429 -17.202856,-0.11274 -18.96705,-0.174331 -3.813462,-0.133132 -4.005245,-0.0065 -4.162119,2.748295 -0.0633,1.111533 -0.191827,2.450721 -0.285621,2.975972 -0.385566,2.159189 -0.799013,2.076589 10.79331,2.156499 2.109396,0.0145 4.032868,0.15429 4.274385,0.31055 0.32605,0.21095 0.425969,1.69227 0.388049,5.7529 -0.200379,21.458438 0.04229,34.181638 0.654638,34.323498 1.175735,0.27239 8.284328,0.18025 8.646056,-0.11207 z m 40.749822,-0.76957 c 0.27179,-1.3425 -0.003,-35.927568 -0.29595,-37.260488 -0.47221,-2.14799 0.32664,-2.60529 4.17982,-2.39271 4.99824,0.27576 11.23034,0.0258 11.37766,-0.45644 0.0698,-0.22836 0.0438,-1.905732 -0.0578,-3.727483 l -0.18463,-3.312275 -18.893563,-0.08827 c -14.050251,-0.06564 -18.957705,0.01551 -19.143768,0.316564 -0.444061,0.718505 -0.499637,6.661424 -0.06717,7.182514 0.286365,0.34505 0.853555,0.4225 1.993675,0.27223 2.510512,-0.33088 10.997854,-0.51589 11.429461,-0.24914 0.276512,0.17089 0.444396,6.06998 0.577347,20.28677 0.103102,11.025198 0.194957,20.060548 0.20412,20.078548 0.0092,0.018 1.97567,0.0541 4.370015,0.0802 4.241243,0.0463 4.357403,0.0275 4.510753,-0.73005 z"
       style="fill:#333333;fill-opacity:1;stroke-width:0.34866" />
  </g>
</svg>
